<svg width="18" height="17" viewBox="0 0 18 17" fill="none" xmlns="http://www.w3.org/2000/svg">
<path d="M17.7812 2.09375L16.375 0.21875C16.2812 0.09375 16.125 0 16 0C15.8438 0 15.6875 0.09375 15.5938 0.21875L14.1875 2.09375C14.0625 2.25 14 2.46875 14 2.6875V15.0312C14 15.5625 14.4375 16.0312 15 16.0312H17C17.5312 16.0312 18 15.5625 18 15.0312V2.6875C18 2.46875 17.9062 2.25 17.7812 2.09375ZM16.5 14.5H15.5V2.84375L16 2.1875L16.5 2.84375V14.5ZM4 2.6875C4 2.46875 3.90625 2.25 3.78125 2.09375L2.375 0.21875C2.28125 0.09375 2.125 0 2 0C1.84375 0 1.6875 0.09375 1.59375 0.21875L0.1875 2.09375C0.0625 2.25 0 2.46875 0 2.6875V15.0312C0 15.5625 0.4375 16.0312 1 16.0312H3C3.53125 16.0312 4 15.5625 4 15.0312V13H6V11H4V7H6V5H4V2.6875ZM2.5 14.5H1.5V2.84375L2 2.1875L2.5 2.84375V14.5ZM11 2.6875C11 2.46875 10.9062 2.25 10.7812 2.09375L9.375 0.21875C9.28125 0.09375 9.125 0 9 0C8.84375 0 8.6875 0.09375 8.59375 0.21875L7.1875 2.09375C7.0625 2.25 7 2.46875 7 2.6875V15.0312C7 15.5625 7.4375 16.0312 8 16.0312H10C10.5312 16.0312 11 15.5625 11 15.0312V13H13V11H11V7H13V5H11V2.6875ZM9.5 14.5H8.5V2.84375L9 2.1875L9.5 2.84375V14.5Z" fill="white"/>
</svg>
