<svg width="56" height="56" viewBox="0 0 56 56" fill="none" xmlns="http://www.w3.org/2000/svg">
<circle cx="28" cy="28" r="28" fill="white" fill-opacity="0.6"/>
<path d="M34.9688 28C34.9688 28.4375 34.625 28.7812 34.2188 28.7812H23.5938L27.75 32.7188C28.0625 33 28.0625 33.5 27.7812 33.7812C27.5 34.0938 27.0312 34.0938 26.7188 33.8125L21.2188 28.5625C21.0625 28.4062 21 28.2188 21 28C21 27.8125 21.0625 27.625 21.2188 27.4688L26.7188 22.2188C27.0312 21.9375 27.5 21.9375 27.7812 22.25C28.0625 22.5312 28.0625 23.0312 27.75 23.3125L23.5938 27.25H34.2188C34.6562 27.25 34.9688 27.5938 34.9688 28Z" fill="#002542"/>
</svg>
