<svg width="56" height="71" viewBox="0 0 56 71" fill="none" xmlns="http://www.w3.org/2000/svg">
<rect width="56" height="71" rx="5" fill="#00CB8D"/>
<path d="M35.5 28.5H20.5C19.0938 28.5 18 29.6328 18 31V41C18 42.4062 19.0938 43.5 20.5 43.5H35.5C36.8672 43.5 38 42.4062 38 41V31C38 29.6328 36.8672 28.5 35.5 28.5ZM20.5 30.375H35.5C35.8125 30.375 36.125 30.6875 36.125 31V31.8984L29.6016 37.2891C28.7031 38.0312 27.2578 38.0312 26.3594 37.2891L19.875 31.8984V31C19.875 30.6875 20.1484 30.375 20.5 30.375ZM35.5 41.625H20.5C20.1484 41.625 19.875 41.3516 19.875 41V34.3203L25.1875 38.7734C25.9688 39.3984 26.9453 39.75 28 39.75C29.0156 39.75 29.9922 39.3984 30.7734 38.7734L36.125 34.3203V41C36.125 41.3516 35.8125 41.625 35.5 41.625Z" fill="white"/>
</svg>
