<svg width="288" height="16" viewBox="0 0 288 16" fill="none" xmlns="http://www.w3.org/2000/svg">
<path d="M12.176 2.6803V13.8483H9.936V6.5843L6.944 13.8483H5.248L2.24 6.5843V13.8483H0V2.6803H2.544L6.096 10.9843L9.648 2.6803H12.176Z" fill="#6C6C6C"/>
<path d="M22.7586 4.9843V13.8483H20.5026V12.7283C20.2146 13.1123 19.836 13.4163 19.3666 13.6403C18.908 13.8536 18.4066 13.9603 17.8626 13.9603C17.1693 13.9603 16.556 13.8163 16.0226 13.5283C15.4893 13.2296 15.068 12.7976 14.7586 12.2323C14.46 11.6563 14.3106 10.9736 14.3106 10.1843V4.9843H16.5506V9.8643C16.5506 10.5683 16.7266 11.1123 17.0786 11.4963C17.4306 11.8696 17.9106 12.0563 18.5186 12.0563C19.1373 12.0563 19.6226 11.8696 19.9746 11.4963C20.3266 11.1123 20.5026 10.5683 20.5026 9.8643V4.9843H22.7586Z" fill="#6C6C6C"/>
<path d="M27.2087 2.0083V13.8483H24.9688V2.0083H27.2087Z" fill="#6C6C6C"/>
<path d="M32.0299 6.8243V11.1123C32.0299 11.411 32.0992 11.6296 32.2379 11.7683C32.3872 11.8963 32.6325 11.9603 32.9739 11.9603H34.0139V13.8483H32.6059C30.7179 13.8483 29.7739 12.931 29.7739 11.0963V6.8243H28.7179V4.9843H29.7739V2.7923H32.0299V4.9843H34.0139V6.8243H32.0299Z" fill="#6C6C6C"/>
<path d="M35.049 9.3843C35.049 8.4883 35.225 7.69363 35.577 7.0003C35.9397 6.30697 36.425 5.77363 37.033 5.4003C37.6517 5.02697 38.3397 4.8403 39.097 4.8403C39.7583 4.8403 40.3343 4.97363 40.825 5.2403C41.3263 5.50697 41.7263 5.84297 42.025 6.2483V4.9843H44.281V13.8483H42.025V12.5523C41.737 12.9683 41.337 13.315 40.825 13.5923C40.3237 13.859 39.7423 13.9923 39.081 13.9923C38.3343 13.9923 37.6517 13.8003 37.033 13.4163C36.425 13.0323 35.9397 12.4936 35.577 11.8003C35.225 11.0963 35.049 10.291 35.049 9.3843ZM42.025 9.4163C42.025 8.8723 41.9183 8.4083 41.705 8.0243C41.4917 7.62963 41.2037 7.33097 40.841 7.1283C40.4783 6.91497 40.089 6.8083 39.673 6.8083C39.257 6.8083 38.873 6.90963 38.521 7.1123C38.169 7.31497 37.881 7.61363 37.657 8.0083C37.4437 8.3923 37.337 8.85097 37.337 9.3843C37.337 9.91763 37.4437 10.387 37.657 10.7923C37.881 11.187 38.169 11.491 38.521 11.7043C38.8837 11.9176 39.2677 12.0243 39.673 12.0243C40.089 12.0243 40.4783 11.923 40.841 11.7203C41.2037 11.507 41.4917 11.2083 41.705 10.8243C41.9183 10.4296 42.025 9.9603 42.025 9.4163Z" fill="#6C6C6C"/>
<path d="M51.3807 4.8563C52.4367 4.8563 53.2901 5.1923 53.9408 5.8643C54.5914 6.52563 54.9167 7.45363 54.9167 8.6483V13.8483H52.6768V8.9523C52.6768 8.2483 52.5008 7.70963 52.1488 7.3363C51.7968 6.9523 51.3168 6.7603 50.7088 6.7603C50.0901 6.7603 49.5994 6.9523 49.2368 7.3363C48.8848 7.70963 48.7088 8.2483 48.7088 8.9523V13.8483H46.4688V4.9843H48.7088V6.0883C49.0074 5.7043 49.3861 5.40563 49.8447 5.1923C50.3141 4.9683 50.8261 4.8563 51.3807 4.8563Z" fill="#6C6C6C"/>
<path d="M282.034 5.46875L278.565 8.96875L277.065 7.46875C276.752 7.1875 276.284 7.1875 276.002 7.46875C275.69 7.78125 275.69 8.25 276.002 8.53125L278.002 10.5312C278.159 10.6875 278.346 10.75 278.565 10.75C278.752 10.75 278.94 10.6875 279.065 10.5312L283.065 6.53125C283.377 6.25 283.377 5.78125 283.065 5.5C282.784 5.1875 282.315 5.1875 282.034 5.46875ZM279.565 0C275.127 0 271.565 3.59375 271.565 8C271.565 12.4375 275.127 16 279.565 16C283.971 16 287.565 12.4375 287.565 8C287.565 3.59375 283.971 0 279.565 0ZM279.565 14.5C275.971 14.5 273.065 11.5938 273.065 8C273.065 4.4375 275.971 1.5 279.565 1.5C283.127 1.5 286.065 4.4375 286.065 8C286.065 11.5938 283.127 14.5 279.565 14.5Z" fill="#D9D9D9"/>
</svg>
