<svg width="288" height="16" viewBox="0 0 288 16" fill="none" xmlns="http://www.w3.org/2000/svg">
<path d="M12.176 4.68801V15.856H9.936V8.59201L6.944 15.856H5.248L2.24 8.59201V15.856H0V4.68801H2.544L6.096 12.992L9.648 4.68801H12.176Z" fill="#6C6C6C"/>
<path d="M13.8146 11.392C13.8146 10.496 13.9906 9.70135 14.3426 9.00801C14.7053 8.31468 15.1906 7.78135 15.7986 7.40801C16.4173 7.03468 17.1053 6.84801 17.8626 6.84801C18.524 6.84801 19.1 6.98135 19.5906 7.24801C20.092 7.51468 20.492 7.85068 20.7906 8.25601V6.99201H23.0466V15.856H20.7906V14.56C20.5026 14.976 20.1026 15.3227 19.5906 15.6C19.0893 15.8667 18.508 16 17.8466 16C17.1 16 16.4173 15.808 15.7986 15.424C15.1906 15.04 14.7053 14.5013 14.3426 13.808C13.9906 13.104 13.8146 12.2987 13.8146 11.392ZM20.7906 11.424C20.7906 10.88 20.684 10.416 20.4706 10.032C20.2573 9.63735 19.9693 9.33868 19.6066 9.13601C19.244 8.92268 18.8546 8.81601 18.4386 8.81601C18.0226 8.81601 17.6386 8.91735 17.2866 9.12001C16.9346 9.32268 16.6466 9.62135 16.4226 10.016C16.2093 10.4 16.1026 10.8587 16.1026 11.392C16.1026 11.9253 16.2093 12.3947 16.4226 12.8C16.6466 13.1947 16.9346 13.4987 17.2866 13.712C17.6493 13.9253 18.0333 14.032 18.4386 14.032C18.8546 14.032 19.244 13.9307 19.6066 13.728C19.9693 13.5147 20.2573 13.216 20.4706 12.832C20.684 12.4373 20.7906 11.968 20.7906 11.424Z" fill="#6C6C6C"/>
<path d="M27.4744 4.01601V15.856H25.2344V4.01601H27.4744Z" fill="#6C6C6C"/>
<path d="M30.8235 5.93601C30.4288 5.93601 30.0982 5.81335 29.8315 5.56801C29.5755 5.31201 29.4475 4.99734 29.4475 4.62401C29.4475 4.25068 29.5755 3.94134 29.8315 3.69601C30.0982 3.44001 30.4288 3.31201 30.8235 3.31201C31.2182 3.31201 31.5435 3.44001 31.7995 3.69601C32.0662 3.94134 32.1995 4.25068 32.1995 4.62401C32.1995 4.99734 32.0662 5.31201 31.7995 5.56801C31.5435 5.81335 31.2182 5.93601 30.8235 5.93601ZM31.9275 6.99201V15.856H29.6875V6.99201H31.9275Z" fill="#6C6C6C"/>
<path d="M36.3806 8.36801C36.6686 7.89868 37.042 7.53068 37.5006 7.26401C37.97 6.99735 38.5033 6.86401 39.1006 6.86401V9.21601H38.5086C37.8046 9.21601 37.2713 9.38135 36.9086 9.71201C36.5566 10.0427 36.3806 10.6187 36.3806 11.44V15.856H34.1406V6.99201H36.3806V8.36801Z" fill="#6C6C6C"/>
<path d="M282.034 5.46875L278.565 8.96875L277.065 7.46875C276.753 7.1875 276.284 7.1875 276.003 7.46875C275.69 7.78125 275.69 8.25 276.003 8.53125L278.003 10.5312C278.159 10.6875 278.347 10.75 278.565 10.75C278.753 10.75 278.94 10.6875 279.065 10.5312L283.065 6.53125C283.378 6.25 283.378 5.78125 283.065 5.5C282.784 5.1875 282.315 5.1875 282.034 5.46875ZM279.565 0C275.128 0 271.565 3.59375 271.565 8C271.565 12.4375 275.128 16 279.565 16C283.972 16 287.565 12.4375 287.565 8C287.565 3.59375 283.972 0 279.565 0ZM279.565 14.5C275.972 14.5 273.065 11.5938 273.065 8C273.065 4.4375 275.972 1.5 279.565 1.5C283.128 1.5 286.065 4.4375 286.065 8C286.065 11.5938 283.128 14.5 279.565 14.5Z" fill="#D9D9D9"/>
</svg>
