<svg width="23" height="18" viewBox="0 0 23 18" fill="none" xmlns="http://www.w3.org/2000/svg">
<path d="M22.8403 8.26563C20.684 3.35417 16.3715 0 11.5 0C6.58854 0 2.27604 3.35417 0.119792 8.26563C0.0399306 8.46528 0 8.74479 0 8.94444C0 9.1441 0.0399306 9.46354 0.119792 9.66319C2.27604 14.5747 6.58854 17.8889 11.5 17.8889C16.3715 17.8889 20.684 14.5747 22.8403 9.66319C22.9201 9.46354 23 9.1441 23 8.94444C23 8.74479 22.9201 8.46528 22.8403 8.26563ZM11.5 15.9722C7.50694 15.9722 3.83333 13.2969 1.91667 8.98438C3.87326 4.63194 7.50694 1.91667 11.5 1.91667C15.4531 1.91667 19.1267 4.63194 21.0434 8.94444C19.0868 13.2969 15.4531 15.9722 11.5 15.9722ZM11.5 3.83333C8.66493 3.83333 6.38889 6.14931 6.38889 8.94444C6.38889 11.7795 8.66493 14.0556 11.5 14.0556C14.2951 14.0556 16.6111 11.7795 16.6111 8.98438C16.6111 6.14931 14.2951 3.83333 11.5 3.83333ZM11.5 12.1389C9.70312 12.1389 8.30556 10.7413 8.30556 8.94444C8.30556 8.94444 8.30556 8.90451 8.30556 8.86458C8.50521 8.94444 8.70486 8.94444 8.94444 8.94444C10.342 8.94444 11.5 7.82639 11.5 6.38889C11.5 6.18924 11.4601 5.98958 11.3802 5.78993C11.4201 5.78993 11.4601 5.75 11.5 5.75C13.2569 5.75 14.6944 7.1875 14.6944 8.98438C14.6944 10.7413 13.2569 12.1389 11.5 12.1389Z" fill="#DCDCDC"/>
</svg>
