<svg width="289" height="17" viewBox="0 0 289 17" fill="none" xmlns="http://www.w3.org/2000/svg">
<path d="M8.34572 4.04446C8.08893 3.57368 7.73584 3.21524 7.28646 2.96915C6.83707 2.72306 6.31279 2.60001 5.71361 2.60001C5.05023 2.60001 4.46175 2.74981 3.94817 3.0494C3.43458 3.34899 3.03335 3.77697 2.74446 4.33335C2.45557 4.88974 2.31112 5.53171 2.31112 6.25929C2.31112 7.00826 2.45557 7.66094 2.74446 8.21732C3.04405 8.7737 3.45598 9.20169 3.98027 9.50128C4.50455 9.80087 5.11443 9.95067 5.8099 9.95067C6.66588 9.95067 7.3667 9.72597 7.91238 9.27659C8.45807 8.8165 8.8165 8.17987 8.9877 7.3667H5.13583V5.64941H11.2025V7.60744C11.0527 8.38852 10.7317 9.11074 10.2396 9.77412C9.74737 10.4375 9.11074 10.9725 8.32967 11.3791C7.5593 11.775 6.69263 11.9729 5.72966 11.9729C4.64899 11.9729 3.66998 11.7322 2.79261 11.2507C1.92594 10.7585 1.24116 10.0791 0.738275 9.21239C0.246092 8.34572 0 7.36135 0 6.25929C0 5.15723 0.246092 4.17286 0.738275 3.30619C1.24116 2.42882 1.92594 1.74939 2.79261 1.26791C3.66998 0.775724 4.64364 0.529632 5.71361 0.529632C6.97617 0.529632 8.07288 0.839921 9.00375 1.4605C9.93462 2.07038 10.5766 2.9317 10.9297 4.04446H8.34572Z" fill="#6C6C6C"/>
<path d="M21.2588 2.9852V11.8766H18.9958V10.7531C18.7069 11.1383 18.3271 11.4433 17.8563 11.668C17.3962 11.882 16.8933 11.9889 16.3476 11.9889C15.6522 11.9889 15.0369 11.8445 14.5019 11.5556C13.967 11.256 13.5443 10.8227 13.234 10.2556C12.9344 9.67782 12.7846 8.99305 12.7846 8.20127V2.9852H15.0316V7.88028C15.0316 8.58646 15.2081 9.13214 15.5612 9.51733C15.9143 9.89182 16.3958 10.0791 17.0057 10.0791C17.6262 10.0791 18.1131 9.89182 18.4662 9.51733C18.8192 9.13214 18.9958 8.58646 18.9958 7.88028V2.9852H21.2588Z" fill="#6C6C6C"/>
<path d="M25.7226 0V11.8766H23.4757V0H25.7226Z" fill="#6C6C6C"/>
<path d="M30.1895 4.28521C30.4784 3.85722 30.8743 3.50948 31.3772 3.24199C31.8908 2.9745 32.4739 2.84075 33.1266 2.84075C33.8863 2.84075 34.571 3.028 35.1809 3.40249C35.8015 3.77697 36.2883 4.31195 36.6414 5.00743C37.0052 5.69221 37.1871 6.48933 37.1871 7.3988C37.1871 8.30827 37.0052 9.11609 36.6414 9.82227C36.2883 10.5177 35.8015 11.0581 35.1809 11.4433C34.571 11.8285 33.8863 12.021 33.1266 12.021C32.4632 12.021 31.8801 11.8927 31.3772 11.6359C30.885 11.3684 30.4891 11.026 30.1895 10.6087V11.8766H27.9426V0H30.1895V4.28521ZM34.892 7.3988C34.892 6.86382 34.7797 6.40373 34.555 6.01855C34.341 5.62266 34.0521 5.32307 33.6883 5.11978C33.3352 4.91648 32.95 4.81484 32.5328 4.81484C32.1262 4.81484 31.741 4.92183 31.3772 5.13583C31.0241 5.33912 30.7352 5.63871 30.5105 6.0346C30.2965 6.43048 30.1895 6.89592 30.1895 7.4309C30.1895 7.96588 30.2965 8.43132 30.5105 8.8272C30.7352 9.22309 31.0241 9.52803 31.3772 9.74202C31.741 9.94532 32.1262 10.047 32.5328 10.047C32.95 10.047 33.3352 9.93997 33.6883 9.72597C34.0521 9.51198 34.341 9.20704 34.555 8.81115C34.7797 8.41527 34.892 7.94448 34.892 7.3988Z" fill="#6C6C6C"/>
<path d="M47.0854 7.23831C47.0854 7.5593 47.064 7.84819 47.0212 8.10498H40.5211C40.5746 8.74696 40.7993 9.24984 41.1952 9.61363C41.5911 9.97741 42.0779 10.1593 42.6557 10.1593C43.4903 10.1593 44.0841 9.80087 44.4372 9.08399H46.8607C46.6039 9.93997 46.1117 10.6461 45.3841 11.2025C44.6565 11.7482 43.7631 12.021 42.7039 12.021C41.8479 12.021 41.0775 11.8338 40.3927 11.4593C39.7187 11.0741 39.189 10.5338 38.8038 9.83832C38.4293 9.14284 38.2421 8.34037 38.2421 7.4309C38.2421 6.51073 38.4293 5.70291 38.8038 5.00743C39.1783 4.31195 39.7026 3.77697 40.3767 3.40249C41.0508 3.028 41.8265 2.84075 42.7039 2.84075C43.5491 2.84075 44.3034 3.02265 44.9668 3.38644C45.6409 3.75022 46.1598 4.26916 46.5236 4.94323C46.8981 5.60661 47.0854 6.37164 47.0854 7.23831ZM44.7582 6.59633C44.7475 6.01855 44.5388 5.55846 44.1323 5.21607C43.7257 4.86299 43.2281 4.68644 42.6397 4.68644C42.0833 4.68644 41.6125 4.85764 41.2273 5.20003C40.8528 5.53171 40.6228 5.99715 40.5372 6.59633H44.7582Z" fill="#6C6C6C"/>
<path d="M50.9723 4.36545C51.2612 3.89467 51.6357 3.52553 52.0958 3.25804C52.5666 2.99055 53.1016 2.8568 53.7007 2.8568V5.21607H53.1069C52.4007 5.21607 51.8658 5.38192 51.502 5.71361C51.1489 6.0453 50.9723 6.62308 50.9723 7.44695V11.8766H48.7254V2.9852H50.9723V4.36545Z" fill="#6C6C6C"/>
<path d="M58.6969 2.84075C59.3603 2.84075 59.9434 2.9745 60.4463 3.24199C60.9492 3.49878 61.3451 3.83582 61.6339 4.25311V2.9852H63.8969V11.9408C63.8969 12.7647 63.7311 13.4976 63.3994 14.1396C63.0677 14.7923 62.5702 15.3058 61.9068 15.6803C61.2434 16.0655 60.4409 16.2581 59.4994 16.2581C58.2368 16.2581 57.1989 15.9639 56.3858 15.3754C55.5833 14.7869 55.1286 13.9844 55.0216 12.968H57.2524C57.3701 13.3746 57.6216 13.6955 58.0068 13.9309C58.4026 14.177 58.8788 14.3001 59.4352 14.3001C60.0878 14.3001 60.6175 14.1021 61.0241 13.7062C61.4306 13.3211 61.6339 12.7326 61.6339 11.9408V10.5605C61.3451 10.9778 60.9438 11.3256 60.4302 11.6038C59.9273 11.882 59.3496 12.021 58.6969 12.021C57.9479 12.021 57.2631 11.8285 56.6426 11.4433C56.022 11.0581 55.5298 10.5177 55.166 9.82227C54.8129 9.11609 54.6364 8.30827 54.6364 7.3988C54.6364 6.50003 54.8129 5.70291 55.166 5.00743C55.5298 4.31195 56.0166 3.77697 56.6265 3.40249C57.2471 3.028 57.9372 2.84075 58.6969 2.84075ZM61.6339 7.4309C61.6339 6.88522 61.5269 6.41978 61.313 6.0346C61.099 5.63871 60.8101 5.33912 60.4463 5.13583C60.0825 4.92183 59.692 4.81484 59.2747 4.81484C58.8574 4.81484 58.4722 4.91648 58.1191 5.11978C57.766 5.32307 57.4771 5.62266 57.2524 6.01855C57.0384 6.40373 56.9314 6.86382 56.9314 7.3988C56.9314 7.93378 57.0384 8.40457 57.2524 8.81115C57.4771 9.20704 57.766 9.51198 58.1191 9.72597C58.4829 9.93997 58.8681 10.047 59.2747 10.047C59.692 10.047 60.0825 9.94532 60.4463 9.74202C60.8101 9.52803 61.099 9.22844 61.313 8.84325C61.5269 8.44737 61.6339 7.97658 61.6339 7.4309Z" fill="#6C6C6C"/>
<path d="M283.452 5.69431L279.972 9.20513L278.468 7.70049C278.154 7.41837 277.684 7.41837 277.402 7.70049C277.088 8.01395 277.088 8.48415 277.402 8.76627L279.408 10.7725C279.565 10.9292 279.753 10.9919 279.972 10.9919C280.16 10.9919 280.348 10.9292 280.474 10.7725L284.486 6.76009C284.8 6.47797 284.8 6.00777 284.486 5.72565C284.204 5.41219 283.734 5.41219 283.452 5.69431ZM280.975 0.208651C276.524 0.208651 272.951 3.81351 272.951 8.23338C272.951 12.6846 276.524 16.2581 280.975 16.2581C285.395 16.2581 289 12.6846 289 8.23338C289 3.81351 285.395 0.208651 280.975 0.208651ZM280.975 14.7535C277.37 14.7535 274.455 11.8382 274.455 8.23338C274.455 4.65987 277.37 1.71329 280.975 1.71329C284.549 1.71329 287.495 4.65987 287.495 8.23338C287.495 11.8382 284.549 14.7535 280.975 14.7535Z" fill="#D9D9D9"/>
</svg>
