<svg width="288" height="16" viewBox="0 0 288 16" fill="none" xmlns="http://www.w3.org/2000/svg">
<path d="M2.24 12.0718H5.92V13.8478H0V2.67981H2.24V12.0718Z" fill="#6C6C6C"/>
<path d="M6.76775 9.38381C6.76775 8.48781 6.94375 7.69315 7.29575 6.99981C7.65842 6.30648 8.14375 5.77315 8.75175 5.39981C9.37042 5.02648 10.0584 4.83981 10.8158 4.83981C11.4771 4.83981 12.0531 4.97315 12.5438 5.23981C13.0451 5.50648 13.4451 5.84248 13.7437 6.24781V4.98381H15.9998V13.8478H13.7437V12.5518C13.4557 12.9678 13.0558 13.3145 12.5438 13.5918C12.0424 13.8585 11.4611 13.9918 10.7998 13.9918C10.0531 13.9918 9.37042 13.7998 8.75175 13.4158C8.14375 13.0318 7.65842 12.4931 7.29575 11.7998C6.94375 11.0958 6.76775 10.2905 6.76775 9.38381ZM13.7437 9.41581C13.7437 8.87181 13.6371 8.40781 13.4237 8.02381C13.2104 7.62915 12.9224 7.33048 12.5597 7.12781C12.1971 6.91448 11.8078 6.80781 11.3918 6.80781C10.9758 6.80781 10.5918 6.90915 10.2397 7.11181C9.88775 7.31448 9.59975 7.61315 9.37575 8.00781C9.16242 8.39181 9.05575 8.85048 9.05575 9.38381C9.05575 9.91715 9.16242 10.3865 9.37575 10.7918C9.59975 11.1865 9.88775 11.4905 10.2397 11.7038C10.6024 11.9171 10.9864 12.0238 11.3918 12.0238C11.8078 12.0238 12.1971 11.9225 12.5597 11.7198C12.9224 11.5065 13.2104 11.2078 13.4237 10.8238C13.6371 10.4291 13.7437 9.95981 13.7437 9.41581Z" fill="#6C6C6C"/>
<path d="M23.1795 4.85581C23.8515 4.85581 24.4488 5.00515 24.9715 5.30381C25.4942 5.59181 25.8995 6.02381 26.1875 6.59981C26.4862 7.16515 26.6355 7.84781 26.6355 8.64781V13.8478H24.3955V8.95181C24.3955 8.24781 24.2195 7.70915 23.8675 7.33581C23.5155 6.95181 23.0355 6.75981 22.4275 6.75981C21.8088 6.75981 21.3182 6.95181 20.9555 7.33581C20.6035 7.70915 20.4275 8.24781 20.4275 8.95181V13.8478H18.1875V2.00781H20.4275V6.08781C20.7155 5.70381 21.0995 5.40515 21.5795 5.19181C22.0595 4.96781 22.5928 4.85581 23.1795 4.85581Z" fill="#6C6C6C"/>
<path d="M32.7016 13.9918C31.8483 13.9918 31.0803 13.8051 30.3976 13.4318C29.715 13.0478 29.1763 12.5091 28.7816 11.8158C28.3976 11.1225 28.2056 10.3225 28.2056 9.41581C28.2056 8.50915 28.403 7.70915 28.7976 7.01581C29.203 6.32248 29.7523 5.78915 30.4456 5.41581C31.139 5.03181 31.9123 4.83981 32.7656 4.83981C33.619 4.83981 34.3923 5.03181 35.0856 5.41581C35.779 5.78915 36.323 6.32248 36.7176 7.01581C37.123 7.70915 37.3256 8.50915 37.3256 9.41581C37.3256 10.3225 37.1176 11.1225 36.7016 11.8158C36.2963 12.5091 35.7416 13.0478 35.0376 13.4318C34.3443 13.8051 33.5656 13.9918 32.7016 13.9918ZM32.7016 12.0398C33.107 12.0398 33.4856 11.9438 33.8376 11.7518C34.2003 11.5491 34.4883 11.2505 34.7016 10.8558C34.915 10.4611 35.0216 9.98115 35.0216 9.41581C35.0216 8.57315 34.7976 7.92781 34.3496 7.47981C33.9123 7.02115 33.3736 6.79181 32.7336 6.79181C32.0936 6.79181 31.555 7.02115 31.1176 7.47981C30.691 7.92781 30.4776 8.57315 30.4776 9.41581C30.4776 10.2585 30.6856 10.9091 31.1016 11.3678C31.5283 11.8158 32.0616 12.0398 32.7016 12.0398Z" fill="#6C6C6C"/>
<path d="M41.2088 6.35981C41.4968 5.89048 41.8701 5.52248 42.3288 5.25581C42.7981 4.98915 43.3314 4.85581 43.9287 4.85581V7.20781H43.3368C42.6328 7.20781 42.0994 7.37315 41.7368 7.70381C41.3848 8.03448 41.2088 8.61048 41.2088 9.43181V13.8478H38.9688V4.98381H41.2088V6.35981Z" fill="#6C6C6C"/>
<path d="M53.6775 9.22381C53.6775 9.54381 53.6562 9.83181 53.6135 10.0878H47.1335C47.1868 10.7278 47.4108 11.2291 47.8055 11.5918C48.2002 11.9545 48.6855 12.1358 49.2615 12.1358C50.0935 12.1358 50.6855 11.7785 51.0375 11.0638H53.4535C53.1975 11.9171 52.7068 12.6211 51.9815 13.1758C51.2562 13.7198 50.3655 13.9918 49.3095 13.9918C48.4562 13.9918 47.6882 13.8051 47.0055 13.4318C46.3335 13.0478 45.8055 12.5091 45.4215 11.8158C45.0482 11.1225 44.8615 10.3225 44.8615 9.41581C44.8615 8.49848 45.0482 7.69315 45.4215 6.99981C45.7948 6.30648 46.3175 5.77315 46.9895 5.39981C47.6615 5.02648 48.4348 4.83981 49.3095 4.83981C50.1522 4.83981 50.9042 5.02115 51.5655 5.38381C52.2375 5.74648 52.7548 6.26381 53.1175 6.93581C53.4908 7.59715 53.6775 8.35981 53.6775 9.22381ZM51.3575 8.58381C51.3468 8.00781 51.1388 7.54915 50.7335 7.20781C50.3282 6.85581 49.8322 6.67981 49.2455 6.67981C48.6908 6.67981 48.2215 6.85048 47.8375 7.19181C47.4642 7.52248 47.2348 7.98648 47.1495 8.58381H51.3575Z" fill="#6C6C6C"/>
<path d="M282.034 5.46875L278.565 8.96875L277.065 7.46875C276.752 7.1875 276.284 7.1875 276.002 7.46875C275.69 7.78125 275.69 8.25 276.002 8.53125L278.002 10.5312C278.159 10.6875 278.346 10.75 278.565 10.75C278.752 10.75 278.94 10.6875 279.065 10.5312L283.065 6.53125C283.377 6.25 283.377 5.78125 283.065 5.5C282.784 5.1875 282.315 5.1875 282.034 5.46875ZM279.565 0C275.127 0 271.565 3.59375 271.565 8C271.565 12.4375 275.127 16 279.565 16C283.971 16 287.565 12.4375 287.565 8C287.565 3.59375 283.971 0 279.565 0ZM279.565 14.5C275.971 14.5 273.065 11.5938 273.065 8C273.065 4.4375 275.971 1.5 279.565 1.5C283.127 1.5 286.065 4.4375 286.065 8C286.065 11.5938 283.127 14.5 279.565 14.5Z" fill="#D9D9D9"/>
</svg>
